<svg xmlns="http://www.w3.org/2000/svg" viewBox="0 0 156 53.847"><defs><linearGradient id="a" x1="94.137" y1="-9.847" x2="94.137" y2="39.077" gradientTransform="matrix(1 0 0 -1 0 44)" gradientUnits="userSpaceOnUse"><stop offset=".01" stop-color="#fff" stop-opacity="0"/><stop offset=".35" stop-color="#fff"/></linearGradient></defs><path d="M44.352 13.541c0-.421-.983-1.4-1.685-1.545-.7 0-13.9.421-17.976.562-.7-1.545-1.545-2.809-1.545-2.949-.14-.421-.843-.7-1.685-.421-.7.281-1.124.843-.983 1.264a11.345 11.345 0 00.983 1.966c-.7 0-2.668.281-3.23.281-.14-.14-.14-.281-.281-.421a57.593 57.593 0 00-4.213-6.6A28.632 28.632 0 009.1 1.042C7.276-.362 6.855.059 6.855.059c-1.966 1.545 5.2 13.061 6.32 14.886a3.07 3.07 0 01.421.7c-.14.14-.14.14-.14.281-.14.281-.983 1.124-2.107 2.387a24.9 24.9 0 01-1.4-2.387 1.29 1.29 0 00-1.545.14c-.7.421-.983 1.124-.843 1.4.14.14.843 1.4 1.966 2.809C5.731 24.636.535 30.534.254 30.956c-.421.7-.281 2.107.14 2.247.421.281 13.622-9.831 14.746-10.533a3.616 3.616 0 012.528-.7 115.445 115.445 0 007.865 10.53c.14.14.281.281.421.281-1.826 2.387-4.494 6.179-4.775 6.741-.14.421-.281.843.421.7.562-.14 5.2-3.651 7.022-4.915a1.527 1.527 0 00.7.14.849.849 0 00.421-.843c1.966-.562 8.848-2.387 9.269-2.387s.562-.421 0-.7c-.562-.14-7.584-.562-10.392-.7-.7-1.545-3.09-6.881-5.477-10.954a4.345 4.345 0 012.528-1.826c1.129-.283 18.54-4.074 18.681-4.496zm5.056-.983l5.056-.281a3.126 3.126 0 00.7 1.826 2.893 2.893 0 002.387.983 2.59 2.59 0 001.826-.562 1.7 1.7 0 000-2.528 5.585 5.585 0 00-2.809-.983 12.335 12.335 0 01-5.056-2.107 4.273 4.273 0 01-1.545-3.371 4.53 4.53 0 01.843-2.528 4.572 4.572 0 012.39-1.824 10.886 10.886 0 014.213-.7 8.382 8.382 0 015.056 1.264 5.691 5.691 0 012.107 3.932l-5.056.281a2.411 2.411 0 00-2.556-2.26l-.112.01a2.1 2.1 0 00-1.4.421 1.275 1.275 0 00-.421.983.772.772 0 00.421.7 4.794 4.794 0 001.826.7 21.958 21.958 0 015.056 1.545 6.164 6.164 0 012.247 1.966 4.333 4.333 0 01.7 2.528 5.055 5.055 0 01-.983 3.09 4.709 4.709 0 01-2.528 2.107 11.982 11.982 0 01-4.213.7c-2.949 0-4.915-.562-6.179-1.685a6.282 6.282 0 01-1.97-4.207zM76.653 1.042h5.337v10.252a10.691 10.691 0 01-.421 2.949 6.344 6.344 0 01-1.545 2.387 6.132 6.132 0 01-2.107 1.4 9.817 9.817 0 01-3.792.562 19.779 19.779 0 01-2.809-.14 10.892 10.892 0 01-2.528-.7 4.689 4.689 0 01-1.826-1.545 4.72 4.72 0 01-1.124-1.966 13.4 13.4 0 01-.562-2.949V1.042h5.337v10.533a2.9 2.9 0 003.09 3.09 2.464 2.464 0 002.107-.843 2.965 2.965 0 00.843-2.247zm6.46 0h8.847a5.813 5.813 0 014.354 1.4 5.2 5.2 0 011.4 3.932 5.619 5.619 0 01-1.545 4.073A6.713 6.713 0 0191.4 12h-2.951v6.46h-5.336zm5.337 7.3h1.264c.983 0 1.826-.14 2.107-.562a1.8 1.8 0 00.562-1.4 1.8 1.8 0 00-.562-1.4c-.421-.421-.983-.562-2.107-.562h-1.545v3.927zm9.69-7.3h14.325v3.652h-8.988V7.5h8.286v3.511h-8.286v3.371h9.269v3.932H98.14zm15.167 17.274V1.042h8.848a12.781 12.781 0 013.792.421 4.591 4.591 0 012.107 1.545 4.457 4.457 0 01.843 2.809 4.809 4.809 0 01-.562 2.528 4.841 4.841 0 01-1.685 1.685 5.508 5.508 0 01-1.826.7 4.258 4.258 0 011.4.7l.843.843a3.523 3.523 0 01.7 1.124l2.528 5.056h-6.039l-2.809-5.337a7.5 7.5 0 00-.983-1.4 2.265 2.265 0 00-1.264-.416h-.421v7.022zm5.337-10.392h2.247a11.763 11.763 0 001.4-.281 1.29 1.29 0 00.843-.562 1.185 1.185 0 00.281-.983 1.369 1.369 0 00-.562-1.264 3.4 3.4 0 00-1.966-.421H118.5v3.511z" fill="#fff"/><path d="M60.783 23.934l-6.039.281a2.588 2.588 0 00-2.944-2.669 2.7 2.7 0 00-1.685.421 1.277 1.277 0 00-.562 1.124 1.217 1.217 0 00.562.983A7.444 7.444 0 0052.5 25.2a24.983 24.983 0 013.792 1.685 6.991 6.991 0 012.387 2.107 6.029 6.029 0 010 6.6 8.778 8.778 0 01-2.949 2.528 11.314 11.314 0 01-5.337.983c-3.23 0-5.618-.562-7.022-1.826a6.082 6.082 0 01-2.109-4.777v-.421l6.039-.421a3.367 3.367 0 00.843 2.668 3.871 3.871 0 004.634.14 1.941 1.941 0 00.843-1.545 1.277 1.277 0 00-.562-1.124c-.281-.421-1.124-.7-2.528-1.264-3.09-1.124-4.915-2.107-5.758-3.09a4.784 4.784 0 01-1.264-3.371 5.464 5.464 0 01.983-3.23 6.9 6.9 0 012.95-2.242 11.155 11.155 0 014.494-.843c5.477-.003 8.426 2.104 8.847 6.177z" fill="#fff"/><path d="M78.338 38.82h-6.179l-.281-3.371h-6.741l-1.545 3.371H56.71l11.516-20.644h6.881zm-6.881-7.865l-.7-7.443-3.511 7.443zM98.14 18.176L86.624 38.82h-6.882L75.81 18.176h6.32l1.826 14.606 7.3-14.606z" fill="#fff"/><path d="M114.852 18.176l-.983 4.494h-10.393l-.7 3.23h10.112l-.983 4.213h-9.971l-.843 4.073h11.375l-.983 4.634H93.646L98 18.176zm1.825 0h11.656a6.208 6.208 0 014.494 1.545 5.536 5.536 0 011.4 3.792 6.485 6.485 0 01-1.545 4.213c-.983 1.264-2.528 1.966-4.775 2.247 1.264 1.124 2.809 3.932 4.634 8.707H125.8c-.562-1.545-1.264-3.09-1.966-4.915s-1.264-2.809-1.685-3.09a2.373 2.373 0 00-1.4-.421h-.281l-1.826 8.426h-6.46zm4.634 8.286h1.264a20.114 20.114 0 003.932-.281 2.241 2.241 0 001.264-.983 2.265 2.265 0 00.421-1.264 1.369 1.369 0 00-.562-1.264 3.869 3.869 0 00-2.247-.421h-3.23z" fill="#fff"/><path d="M142.518 4.834S156 13.963 156 27.726s-9.831 22.049-15.308 26.121h-20.223s20.363-6.46 26.262-22.189a26.988 26.988 0 00-4.213-26.824zM51.093 53.847h9.831C42.948 48.51 32.274 38.82 32.274 38.82c6.882 9.409 18.819 15.027 18.819 15.027z" fill="url(#a)"/></svg>