<svg xmlns="http://www.w3.org/2000/svg" viewBox="0 0 64 64" fill="#0068bc"><path d="M32 64c-14.884 0-29.236-6.272-29.236-8.292 0-2.658.532-7.229 1.595-9.249 2.551-5.1 9.355-6.485 12.439-7.229 2.233-.532 5.1-1.488 6.7-2.977 1.169-1.063 1.169-4.146 1.169-4.146-2.658-2.87-3.4-8.718-3.4-8.718-4.571-5.422-1.488-6.91-1.488-6.91C17.754 2.658 27.854 0 32.106 0c3.615 0 14.14 3.083 12.013 16.478 0 0 3.083 1.595-1.488 7.017 0 0-.744 5.847-3.4 8.718 0 0-.106 2.87 1.382 4.146 1.276 1.063 3.934 2.02 6.591 2.87 2.126.638 9.887 2.126 12.439 7.229.957 2.02 1.595 6.591 1.595 9.143C61.236 57.409 47.2 64 32 64z"/></svg>